<svg version="1.1" viewBox="0.0 0.0 960.0 560.0" fill="none" stroke="none" stroke-linecap="square" stroke-miterlimit="10" xmlns:xlink="http://www.w3.org/1999/xlink" xmlns="http://www.w3.org/2000/svg"><clipPath id="g14deb1d780d_0_145.0"><path d="m0 0l960.0 0l0 540.0l-960.0 0l0 -540.0z" clip-rule="nonzero"/></clipPath><g clip-path="url(#g14deb1d780d_0_145.0)"><path fill="#ffffff" d="m0 0l960.0 0l0 540.0l-960.0 0z" fill-rule="evenodd"/><path fill="#000000" fill-opacity="0.0" d="m232.76077 209.8518l0 0c0 -17.971848 14.569061 -32.54091 32.540894 -32.54091l395.45364 0c8.630371 0 16.907288 3.4284058 23.009888 9.531006c6.1026 6.1026154 9.531006 14.379517 9.531006 23.009903l0 226.47723c0 17.971863 -14.569092 32.540924 -32.540894 32.540924l-395.45364 0c-17.971832 0 -32.540894 -14.569061 -32.540894 -32.540924z" fill-rule="evenodd"/><path stroke="#644f7f" stroke-width="24.0" stroke-linejoin="round" stroke-linecap="butt" d="m232.76077 209.8518l0 0c0 -17.971848 14.569061 -32.54091 32.540894 -32.54091l395.45364 0c8.630371 0 16.907288 3.4284058 23.009888 9.531006c6.1026 6.1026154 9.531006 14.379517 9.531006 23.009903l0 226.47723c0 17.971863 -14.569092 32.540924 -32.540894 32.540924l-395.45364 0c-17.971832 0 -32.540894 -14.569061 -32.540894 -32.540924z" fill-rule="evenodd"/><path fill="#644f7f" d="m693.3512 257.66248l0 0c0 -8.082733 6.552368 -14.635086 14.635071 -14.635086l43.832153 0l0 0c3.8814697 0 7.604004 1.5419159 10.348633 4.2865143c2.7445679 2.7446136 4.286499 6.4671173 4.286499 10.348572l0 119.29675c0 8.082733 -6.552368 14.635101 -14.635132 14.635101l-43.832153 0c-8.082703 0 -14.635071 -6.552368 -14.635071 -14.635101z" fill-rule="evenodd"/><path fill="#ffffff" d="m219.2003 137.91214l0 0c0 -6.694229 5.4267426 -12.120972 12.120972 -12.120972l464.19897 0c3.2146606 0 6.2977295 1.277031 8.570862 3.5501556c2.2730713 2.273117 3.5501099 5.35614 3.5501099 8.570816l0 48.482468c0 6.694229 -5.426758 12.120972 -12.120972 12.120972l-464.19897 0c-6.694229 0 -12.120972 -5.4267426 -12.120972 -12.120972z" fill-rule="evenodd"/><path fill="#000000" fill-opacity="0.0" d="m191.49478 220.35976l278.11023 -149.22836" fill-rule="evenodd"/><path stroke="#644f7f" stroke-width="24.0" stroke-linejoin="round" stroke-linecap="butt" d="m191.49478 220.35976l278.11023 -149.22836" fill-rule="evenodd"/><path fill="#000000" fill-opacity="0.0" d="m737.2708 220.35976l-278.11026 -149.22836" fill-rule="evenodd"/><path stroke="#644f7f" stroke-width="24.0" stroke-linejoin="round" stroke-linecap="butt" d="m737.2708 220.35976l-278.11026 -149.22836" fill-rule="evenodd"/><path fill="#644f7f" d="m275.40494 420.7054l0 -197.56306c0 -3.044159 1.2092896 -5.963623 3.3618164 -8.116165c2.1525574 -2.152542 5.0720215 -3.3618164 8.11618 -3.3618164l91.25168 0c0.0010375977 0 0.0018615723 8.087158E-4 0.0018615723 0.0018310547l-0.0018615723 220.51718l0 0c0 0.0010375977 -7.9345703E-4 0.0018615723 -0.0018310547 0.0018615723l-91.24985 -0.0018615723l0 0c-6.3391113 0 -11.477997 -5.138855 -11.477997 -11.477966z" fill-rule="evenodd"/><path fill="#644f7f" d="m652.35254 223.8094l0 197.56306c0 3.0441284 -1.2092896 5.963623 -3.3618164 8.11615c-2.1525269 2.1525269 -5.0720215 3.3618164 -8.11615 3.3618164l-91.25171 0c-0.0010375977 0 -0.0018310547 -8.239746E-4 -0.0018310547 -0.0018310547l0.0018310547 -220.5172l0 0c0 -0.0010070801 7.9345703E-4 -0.0018310547 0.0018310547 -0.0018310547l91.24988 0.0018310547l0 0c6.3391113 0 11.477966 5.1388702 11.477966 11.477997z" fill-rule="evenodd"/><path fill="#644f7f" d="m412.44592 212.33325l102.729675 0l0 220.51901l-102.729675 0z" fill-rule="evenodd"/><path fill="#644f7f" d="m278.82684 214.56133l185.034 -98.141975l184.09644 98.141975z" fill-rule="evenodd"/><path fill="#ffffff" d="m412.4625 143.16638l-17.163055 0l-17.163086 17.16307l0 58.69667l34.32614 0z" fill-rule="evenodd"/><path fill="#ffffff" d="m515.1756 143.16638l17.163086 0l17.163086 17.16307l0 58.69667l-34.32617 0z" fill-rule="evenodd"/></g></svg>
