<svg version="1.1" viewBox="200.0 130.0 580.0 250.0" fill="none" stroke="none" stroke-linecap="square" stroke-miterlimit="10" xmlns:xlink="http://www.w3.org/1999/xlink" xmlns="http://www.w3.org/2000/svg"><clipPath id="g14deb1d780d_0_160.0"><path d="m0 0l960.0 0l0 540.0l-960.0 0l0 -540.0z" clip-rule="nonzero"/></clipPath><g clip-path="url(#g14deb1d780d_0_160.0)"><path fill="#ffffff" d="m0 0l960.0 0l0 540.0l-960.0 0z" fill-rule="evenodd"/><path fill="#000000" fill-opacity="0.0" d="m0 0l960.0 0l0 540.0l-960.0 0z" fill-rule="evenodd"/><path fill="#644f7f" d="m150.397 168.41815l-80.78125 4.34375l-16.765625 41.9375l-22.984375 -3.09375l7.140625 -61.203125l157.5 0l7.453125 16.46875l-112.453125 174.57812l-21.4375 21.4375l95.6875 -6.203125l17.390625 -48.15625l23.609375 4.65625l-7.140625 68.65625l-170.85938 0l-9.640625 -16.46875l114.953125 -175.51562l18.328125 -21.4375zm114.32364 12.421875q-11.1875 0 -17.71875 -6.515625q-6.515625 -6.53125 -6.515625 -16.78125q0 -11.796875 7.453125 -19.5625q7.453125 -7.765625 19.875 -7.765625q12.4375 0 18.953125 6.6875q6.53125 6.671875 6.53125 16.609375q0 12.421875 -7.46875 19.875q-7.453125 7.453125 -20.796875 7.453125l-0.3125 0zm-16.46875 57.78125l-22.0625 -5.890625l0 -20.8125l56.859375 -6.84375l0.609375 0l8.703125 6.21875l0 149.42188l20.8125 2.484375l0 18.640625l-86.671875 0l0 -18.640625l21.75 -2.796875l0 -121.78125zm121.469635 -7.140625l-7.15625 30.453125l-22.359375 0l0 -52.8125l137.0 0l7.140625 16.140625l-82.625 114.640625l-21.75 22.359375l69.578125 -3.40625l14.921875 -35.734375l21.125 2.484375l-4.96875 56.234375l-144.15625 0l-7.765625 -17.09375l84.8125 -112.140625l22.375 -23.296875l-66.171875 2.171875zm173.34622 0l-7.15625 30.453125l-22.359375 0l0 -52.8125l137.0 0l7.140625 16.140625l-82.625 114.640625l-21.75 22.359375l69.578125 -3.40625l14.921875 -35.734375l21.125 2.484375l-4.96875 56.234375l-144.15625 0l-7.765625 -17.09375l84.8125 -112.140625l22.375 -23.296875l-66.171875 2.171875zm157.18994 -76.734375l-22.984375 -4.03125l0 -16.78125l57.46875 -6.828125l0.625 0l8.375 5.90625l0 227.70312l22.6875 2.484375l0 18.640625l-87.921875 0l0 -18.640625l21.75 -2.796875l0 -205.65625zm84.18567 178.625q0 -28.265625 28.421875 -42.546875q28.421875 -14.296875 73.46875 -14.609375l0 -7.140625q0 -12.734375 -2.640625 -19.875q-2.640625 -7.15625 -9.625 -10.71875q-6.984375 -3.578125 -20.34375 -3.578125q-15.234375 0 -27.34375 3.890625q-12.109375 3.875 -25.15625 10.09375l-9.640625 -19.890625q4.671875 -4.03125 15.6875 -9.625q11.03125 -5.59375 26.25 -9.78125q15.234375 -4.203125 31.375 -4.203125q23.921875 0 37.4375 6.21875q13.515625 6.203125 19.421875 19.875q5.90625 13.671875 5.90625 36.65625l0 95.0625l16.765625 0l0 17.390625q-6.203125 1.5625 -17.703125 3.109375q-11.5 1.5625 -20.1875 1.5625q-10.5625 0 -14.140625 -3.109375q-3.578125 -3.109375 -3.578125 -12.734375l0 -8.390625q-8.375 9.3125 -21.734375 16.78125q-13.359375 7.453125 -30.140625 7.453125q-14.296875 0 -26.25 -6.0625q-11.953125 -6.0625 -19.109375 -17.703125q-7.140625 -11.65625 -7.140625 -28.125zm72.375 26.09375q6.53125 0 14.921875 -3.875q8.390625 -3.890625 14.59375 -9.46875l0 -50.953125q-27.953125 0 -41.78125 9.484375q-13.828125 9.46875 -13.828125 24.375q0 14.90625 6.984375 22.671875q7.0 7.765625 19.109375 7.765625z" fill-rule="nonzero"/></g></svg>
