<svg version="1.1" viewBox="23.0 103.0 290.0 240.0" fill="none" stroke="none" stroke-linecap="square" stroke-miterlimit="10" xmlns:xlink="http://www.w3.org/1999/xlink" xmlns="http://www.w3.org/2000/svg"><clipPath id="g14deb1d780d_0_177.0"><path d="m0 0l960.0 0l0 540.0l-960.0 0l0 -540.0z" clip-rule="nonzero"/></clipPath><g clip-path="url(#g14deb1d780d_0_177.0)"><path fill="#ffffff" d="m0 0l960.0 0l0 540.0l-960.0 0z" fill-rule="evenodd"/><path fill="#000000" fill-opacity="0.0" d="m46.599174 213.04242l0 0c0 -8.823914 7.153202 -15.977112 15.977119 -15.977112l197.11032 0c4.2373962 0 8.301239 1.6832886 11.297546 4.6795807c2.9962769 2.996292 4.679596 7.060135 4.679596 11.297531l0 111.19708c0 8.823944 -7.1532288 15.977142 -15.977142 15.977142l-197.11032 0c-8.823917 0 -15.977119 -7.1531982 -15.977119 -15.977142z" fill-rule="evenodd"/><path stroke="#644f7f" stroke-width="16.0" stroke-linejoin="round" stroke-linecap="butt" d="m46.599174 213.04242l0 0c0 -8.823914 7.153202 -15.977112 15.977119 -15.977112l197.11032 0c4.2373962 0 8.301239 1.6832886 11.297546 4.6795807c2.9962769 2.996292 4.679596 7.060135 4.679596 11.297531l0 111.19708c0 8.823944 -7.1532288 15.977142 -15.977142 15.977142l-197.11032 0c-8.823917 0 -15.977119 -7.1531982 -15.977119 -15.977142z" fill-rule="evenodd"/><path fill="#644f7f" d="m275.52353 236.51993l0 0c0 -3.972763 3.220581 -7.193329 7.193329 -7.193329l21.544067 0l0 0c1.9077759 0 3.7374268 0.7578583 5.0864563 2.1068726c1.348999 1.3490143 2.1068726 3.1786652 2.1068726 5.0864563l0 58.60623c0 3.9727478 -3.220581 7.193329 -7.193329 7.193329l-21.544067 0c-3.9727478 0 -7.193329 -3.220581 -7.193329 -7.193329z" fill-rule="evenodd"/><path fill="#ffffff" d="m39.859303 177.71414l0 0c0 -3.28096 2.659752 -5.9407196 5.9407196 -5.9407196l230.94061 0c1.5755615 0 3.086609 0.62590027 4.200714 1.7400055c1.1141052 1.11409 1.7399902 2.6251373 1.7399902 4.200714l0 23.762177c0 3.28096 -2.659729 5.9407196 -5.9407043 5.9407196l-230.94061 0c-3.2809677 0 -5.9407196 -2.6597595 -5.9407196 -5.9407196z" fill-rule="evenodd"/><path fill="#000000" fill-opacity="0.0" d="m27.109324 218.19868l138.12912 -73.24371" fill-rule="evenodd"/><path stroke="#644f7f" stroke-width="16.0" stroke-linejoin="round" stroke-linecap="butt" d="m27.109324 218.19868l138.12912 -73.24371" fill-rule="evenodd"/><path fill="#000000" fill-opacity="0.0" d="m295.14996 218.19868l-138.12914 -73.24371" fill-rule="evenodd"/><path stroke="#644f7f" stroke-width="16.0" stroke-linejoin="round" stroke-linecap="butt" d="m295.14996 218.19868l-138.12914 -73.24371" fill-rule="evenodd"/><path fill="#644f7f" d="m67.71068 316.58206l0 -96.89694c0 -1.5110016 0.6002426 -2.9600983 1.6686783 -4.028534c1.0684357 -1.0684357 2.51754 -1.6686859 4.028534 -1.6686859l45.293655 0c5.0354004E-4 0 9.0789795E-4 4.119873E-4 9.0789795E-4 9.1552734E-4l-9.0789795E-4 108.29045l0 0c0 5.187988E-4 -4.043579E-4 9.1552734E-4 -9.0026855E-4 9.1552734E-4l-45.292755 -9.1552734E-4l0 0c-3.1464844 0 -5.697212 -2.5507202 -5.697212 -5.6972046z" fill-rule="evenodd"/><path fill="#644f7f" d="m254.81224 220.0127l0 96.89694c0 1.5109863 -0.600235 2.9601135 -1.6686707 4.028534c-1.0684357 1.0684204 -2.5175476 1.6686707 -4.028534 1.6686707l-45.29367 0c-4.8828125E-4 0 -9.0026855E-4 -3.9672852E-4 -9.0026855E-4 -8.8500977E-4l9.0026855E-4 -108.29048l0 0c0 -4.8828125E-4 4.119873E-4 -9.0026855E-4 9.1552734E-4 -9.0026855E-4l45.292755 9.0026855E-4l0 0c3.146469 0 5.6972046 2.5507355 5.6972046 5.69722z" fill-rule="evenodd"/><path fill="#644f7f" d="m135.73228 214.31638l50.990875 0l0 108.29138l-50.990875 0z" fill-rule="evenodd"/><path fill="#644f7f" d="m69.40918 215.41054l91.8434 -48.19507l91.37802 48.19507z" fill-rule="evenodd"/><path fill="#ffffff" d="m135.74052 180.35027l-8.519058 0l-8.519058 8.519058l0 28.733765l17.038116 0z" fill-rule="evenodd"/><path fill="#ffffff" d="m186.72316 180.35027l8.519043 0l8.519058 8.519058l0 28.733765l-17.038101 0z" fill-rule="evenodd"/></g></svg>
