<svg version="1.1" viewBox="23.0 205.0 920.0 80.0" fill="none" stroke="none" stroke-linecap="square" stroke-miterlimit="10" xmlns:xlink="http://www.w3.org/1999/xlink" xmlns="http://www.w3.org/2000/svg"><clipPath id="g14deb1d780d_0_160.0"><path d="m0 0l960.0 0l0 540.0l-960.0 0l0 -540.0z" clip-rule="nonzero"/></clipPath><g clip-path="url(#g14deb1d780d_0_160.0)"><path fill="#ffffff" d="m0 0l960.0 0l0 540.0l-960.0 0z" fill-rule="evenodd"/><path fill="#000000" fill-opacity="0.0" d="m46.599174 213.04242l0 0c0 -8.823914 7.153202 -15.977112 15.977119 -15.977112l197.11032 0c4.2373962 0 8.301239 1.6832886 11.297546 4.6795807c2.9962769 2.996292 4.679596 7.060135 4.679596 11.297531l0 111.19708c0 8.823944 -7.1532288 15.977142 -15.977142 15.977142l-197.11032 0c-8.823917 0 -15.977119 -7.1531982 -15.977119 -15.977142z" fill-rule="evenodd"/><path stroke="#644f7f" stroke-width="16.0" stroke-linejoin="round" stroke-linecap="butt" d="m46.599174 213.04242l0 0c0 -8.823914 7.153202 -15.977112 15.977119 -15.977112l197.11032 0c4.2373962 0 8.301239 1.6832886 11.297546 4.6795807c2.9962769 2.996292 4.679596 7.060135 4.679596 11.297531l0 111.19708c0 8.823944 -7.1532288 15.977142 -15.977142 15.977142l-197.11032 0c-8.823917 0 -15.977119 -7.1531982 -15.977119 -15.977142z" fill-rule="evenodd"/><path fill="#644f7f" d="m275.52353 236.51993l0 0c0 -3.972763 3.220581 -7.193329 7.193329 -7.193329l21.544067 0l0 0c1.9077759 0 3.7374268 0.7578583 5.0864563 2.1068726c1.348999 1.3490143 2.1068726 3.1786652 2.1068726 5.0864563l0 58.60623c0 3.9727478 -3.220581 7.193329 -7.193329 7.193329l-21.544067 0c-3.9727478 0 -7.193329 -3.220581 -7.193329 -7.193329z" fill-rule="evenodd"/><path fill="#ffffff" d="m39.859303 177.71414l0 0c0 -3.28096 2.659752 -5.9407196 5.9407196 -5.9407196l230.94061 0c1.5755615 0 3.086609 0.62590027 4.200714 1.7400055c1.1141052 1.11409 1.7399902 2.6251373 1.7399902 4.200714l0 23.762177c0 3.28096 -2.659729 5.9407196 -5.9407043 5.9407196l-230.94061 0c-3.2809677 0 -5.9407196 -2.6597595 -5.9407196 -5.9407196z" fill-rule="evenodd"/><path fill="#000000" fill-opacity="0.0" d="m27.109324 218.19868l138.12912 -73.24371" fill-rule="evenodd"/><path stroke="#644f7f" stroke-width="16.0" stroke-linejoin="round" stroke-linecap="butt" d="m27.109324 218.19868l138.12912 -73.24371" fill-rule="evenodd"/><path fill="#000000" fill-opacity="0.0" d="m295.14996 218.19868l-138.12914 -73.24371" fill-rule="evenodd"/><path stroke="#644f7f" stroke-width="16.0" stroke-linejoin="round" stroke-linecap="butt" d="m295.14996 218.19868l-138.12914 -73.24371" fill-rule="evenodd"/><path fill="#644f7f" d="m67.71068 316.58206l0 -96.89694c0 -1.5110016 0.6002426 -2.9600983 1.6686783 -4.028534c1.0684357 -1.0684357 2.51754 -1.6686859 4.028534 -1.6686859l45.293655 0c5.0354004E-4 0 9.0789795E-4 4.119873E-4 9.0789795E-4 9.1552734E-4l-9.0789795E-4 108.29045l0 0c0 5.187988E-4 -4.043579E-4 9.1552734E-4 -9.0026855E-4 9.1552734E-4l-45.292755 -9.1552734E-4l0 0c-3.1464844 0 -5.697212 -2.5507202 -5.697212 -5.6972046z" fill-rule="evenodd"/><path fill="#644f7f" d="m254.81224 220.0127l0 96.89694c0 1.5109863 -0.600235 2.9601135 -1.6686707 4.028534c-1.0684357 1.0684204 -2.5175476 1.6686707 -4.028534 1.6686707l-45.29367 0c-4.8828125E-4 0 -9.0026855E-4 -3.9672852E-4 -9.0026855E-4 -8.8500977E-4l9.0026855E-4 -108.29048l0 0c0 -4.8828125E-4 4.119873E-4 -9.0026855E-4 9.1552734E-4 -9.0026855E-4l45.292755 9.0026855E-4l0 0c3.146469 0 5.6972046 2.5507355 5.6972046 5.69722z" fill-rule="evenodd"/><path fill="#644f7f" d="m135.73228 214.31638l50.990875 0l0 108.29138l-50.990875 0z" fill-rule="evenodd"/><path fill="#644f7f" d="m69.40918 215.41054l91.8434 -48.19507l91.37802 48.19507z" fill-rule="evenodd"/><path fill="#ffffff" d="m135.74052 180.35027l-8.519058 0l-8.519058 8.519058l0 28.733765l17.038116 0z" fill-rule="evenodd"/><path fill="#ffffff" d="m186.72316 180.35027l8.519043 0l8.519058 8.519058l0 28.733765l-17.038101 0z" fill-rule="evenodd"/><path fill="#000000" fill-opacity="0.0" d="m340.18896 160.40945l619.81104 0l0 195.27557l-619.81104 0z" fill-rule="evenodd"/><path fill="#644f7f" d="m438.18896 193.52475l-51.3125 2.765625l-10.65625 26.640625l-14.59375 -1.984375l4.53125 -38.875l100.046875 0l4.734375 10.46875l-71.4375 110.890625l-13.609375 13.625l60.78125 -3.953125l11.046875 -30.578125l15.0 2.953125l-4.546875 43.609375l-108.53125 0l-6.109375 -10.453125l73.015625 -111.5l11.640625 -13.609375zm72.60928 7.890625q-7.09375 0 -11.25 -4.140625q-4.140625 -4.140625 -4.140625 -10.65625q0 -7.5 4.734375 -12.421875q4.734375 -4.9375 12.6249695 -4.9375q7.90625 0 12.046875 4.25q4.140625 4.234375 4.140625 10.546875q0 7.890625 -4.734375 12.625q-4.734375 4.734375 -13.2187195 4.734375l-0.203125 0zm-10.453125 36.703125l-14.015625 -3.75l0 -13.21875l36.109344 -4.34375l0.40625 0l5.515625 3.953125l0 94.90625l13.21875 1.578125l0 11.84375l-55.046844 0l0 -11.84375l13.8125 -1.765625l0 -77.359375zm77.144745 -4.53125l-4.53125 19.328125l-14.203125 0l0 -33.546875l87.015625 0l4.546875 10.265625l-52.5 72.8125l-13.8125 14.203125l44.203125 -2.171875l9.46875 -22.6875l13.421875 1.578125l-3.15625 35.71875l-91.5625 0l-4.9375 -10.859375l53.875 -71.234375l14.203125 -14.796875l-42.03125 1.390625zm110.10907 0l-4.53125 19.328125l-14.203125 0l0 -33.546875l87.015625 0l4.546875 10.265625l-52.5 72.8125l-13.8125 14.203125l44.203125 -2.171875l9.46875 -22.6875l13.421875 1.578125l-3.15625 35.71875l-91.5625 0l-4.9375 -10.859375l53.875 -71.234375l14.203125 -14.796875l-42.03125 1.390625zm99.85907 -48.75l-14.609375 -2.5625l0 -10.65625l36.515625 -4.34375l0.390625 0l5.328125 3.75l0 144.64062l14.40625 1.578125l0 11.84375l-55.84375 0l0 -11.84375l13.8125 -1.765625l0 -130.64062zm53.466553 113.46875q0 -17.953125 18.046875 -27.03125q18.0625 -9.078125 46.6875 -9.28125l0 -4.53125q0 -8.09375 -1.6875 -12.625q-1.671875 -4.546875 -6.109375 -6.8125q-4.4375 -2.28125 -12.921875 -2.28125q-9.671875 0 -17.375 2.46875q-7.6875 2.46875 -15.984375 6.421875l-6.109375 -12.625q2.953125 -2.578125 9.953125 -6.125q7.015625 -3.546875 16.6875 -6.203125q9.671875 -2.671875 19.921875 -2.671875q15.203125 0 23.78125 3.953125q8.578125 3.9375 12.328125 12.625q3.75 8.671875 3.75 23.28125l0 60.375l10.65625 0l0 11.046875q-3.9375 1.0 -11.25 1.984375q-7.296875 0.984375 -12.8125 0.984375q-6.71875 0 -8.984375 -1.984375q-2.265625 -1.96875 -2.265625 -8.078125l0 -5.328125q-5.328125 5.921875 -13.8125 10.65625q-8.484375 4.734375 -19.140625 4.734375q-9.078125 0 -16.6875 -3.84375q-7.59375 -3.859375 -12.140625 -11.25q-4.53125 -7.40625 -4.53125 -17.859375zm45.984375 16.578125q4.140625 0 9.46875 -2.46875q5.328125 -2.46875 9.28125 -6.015625l0 -32.359375q-17.765625 0 -26.546875 6.015625q-8.78125 6.015625 -8.78125 15.484375q0 9.46875 4.4375 14.40625q4.4375 4.9375 12.140625 4.9375z" fill-rule="nonzero"/></g></svg>
