<svg version="1.1" viewBox="0.0 0.0 480.0 480.0" fill="none" stroke="none" stroke-linecap="square" stroke-miterlimit="10" xmlns:xlink="http://www.w3.org/1999/xlink" xmlns="http://www.w3.org/2000/svg"><clipPath id="g17c36aade43_0_0.0"><path d="m0 0l480.0 0l0 480.0l-480.0 0l0 -480.0z" clip-rule="nonzero"/></clipPath><g clip-path="url(#g17c36aade43_0_0.0)"><path fill="#000000" fill-opacity="0.0" d="m0 0l480.0 0l0 480.0l-480.0 0z" fill-rule="evenodd"/><path fill="#000000" fill-opacity="0.0" d="m39.777718 188.54677l0 0c0 -14.652634 11.878307 -26.530945 26.530937 -26.530945l325.29446 0c7.036438 0 13.7846985 2.7952118 18.760223 7.7707367c4.9754944 4.9755096 7.7707214 11.723755 7.7707214 18.760208l0 184.64928c0 14.652618 -11.878296 26.530945 -26.530945 26.530945l-325.29446 0c-14.65263 0 -26.530937 -11.878326 -26.530937 -26.530945z" fill-rule="evenodd"/><path stroke="#644f7f" stroke-width="24.0" stroke-linejoin="round" stroke-linecap="butt" d="m39.777718 188.54677l0 0c0 -14.652634 11.878307 -26.530945 26.530937 -26.530945l325.29446 0c7.036438 0 13.7846985 2.7952118 18.760223 7.7707367c4.9754944 4.9755096 7.7707214 11.723755 7.7707214 18.760208l0 184.64928c0 14.652618 -11.878296 26.530945 -26.530945 26.530945l-325.29446 0c-14.65263 0 -26.530937 -11.878326 -26.530937 -26.530945z" fill-rule="evenodd"/><path fill="#644f7f" d="m417.89255 230.17921l0 0c0 -6.562958 5.320343 -11.883301 11.883301 -11.883301l35.590546 0l0 0c3.1516724 0 6.174225 1.2519989 8.402771 3.480545c2.2285461 2.2285461 3.4805298 5.251114 3.4805298 8.402756l0 95.681595c0 6.562958 -5.3203125 11.883301 -11.883301 11.883301l-35.590546 0c-6.562958 0 -11.883301 -5.320343 -11.883301 -11.883301z" fill-rule="evenodd"/><path fill="#ffffff" d="m28.646482 145.28763l0 0c0 -4.4540253 3.6106968 -8.064728 8.064718 -8.064728l384.96054 0c2.1388855 0 4.1901855 0.84968567 5.702606 2.3621063c1.5124207 1.5124207 2.3621216 3.5637207 2.3621216 5.7026215l0 32.25789c0 4.4540253 -3.6107178 8.064728 -8.064728 8.064728l-384.96054 0c-4.4540215 0 -8.064718 -3.6107025 -8.064718 -8.064728z" fill-rule="evenodd"/><path fill="#000000" fill-opacity="0.0" d="m7.5867987 200.08954l228.1687 -119.8089" fill-rule="evenodd"/><path stroke="#644f7f" stroke-width="24.0" stroke-linejoin="round" stroke-linecap="butt" d="m7.5867987 200.08954l228.1687 -119.8089" fill-rule="evenodd"/><path fill="#000000" fill-opacity="0.0" d="m450.3095 200.08954l-228.1687 -119.8089" fill-rule="evenodd"/><path stroke="#644f7f" stroke-width="24.0" stroke-linejoin="round" stroke-linecap="butt" d="m450.3095 200.08954l-228.1687 -119.8089" fill-rule="evenodd"/><path fill="#644f7f" d="m96.03059 346.0793l0 -142.60312c0 -3.1965942 1.269844 -6.262268 3.5301743 -8.522598c2.2603302 -2.2603302 5.3259964 -3.5301666 8.522591 -3.5301666l95.82125 0c7.6293945E-4 0 0.0013885498 6.2561035E-4 0.0013885498 0.0013885498l-0.0013885498 166.70726l0 0c0 7.6293945E-4 -6.2561035E-4 0.0014038086 -0.0013885498 0.0014038086l-95.81986 -0.0014038086l0 0c-6.656555 0 -12.052765 -5.3962097 -12.052765 -12.052765z" fill-rule="evenodd"/><path fill="#644f7f" d="m104.120735 192.0971l125.60113 -63.936996l124.06818 63.936996z" fill-rule="evenodd"/><path fill="#644f7f" d="m361.59933 347.55878l0 -144.08344c0 -3.1965942 -1.2698364 -6.262268 -3.530182 -8.522598c-2.2603455 -2.2603302 -5.325989 -3.5301666 -8.522583 -3.5301666l-95.82126 0c-7.7819824E-4 0 -0.0014038086 6.2561035E-4 -0.0014038086 0.0014038086l0.0014038086 168.18756l0 0c0 7.9345703E-4 6.2561035E-4 0.0014038086 0.0014038086 0.0014038086l95.819855 -0.0014038086l0 0c6.656555 0 12.052765 -5.3962097 12.052765 -12.052765z" fill-rule="evenodd"/><path fill="#ffffff" d="m203.90552 125.13911l49.826767 0l0 68.314964l-49.826767 0z" fill-rule="evenodd"/></g></svg>